<?xml version="1.0" encoding="UTF-8"?>
<svg version="1.1" viewBox="0 0 1000 1000" width="1280" height="1280" xmlns="http://www.w3.org/2000/svg">
<path transform="translate(0)" d="m0 0h1e3v1e3h-1e3z" fill="#FDFDFD"/>
<path transform="translate(483,209)" d="m0 0h36l18 3 21 6 21 9 14 8v2l-11 6-7 8-5 10-2 8v10l3 11 4 8 7 8 13 7 13 2 10-1 10-4 6-4 5-4 6-10 1-2h2l9 16 8 19 5 17 3 16 1 9v32l-3 20-6 21-6 15-10 19-10 14-9 11-17 17-16 12-14 8-16 8-21 7-25 5-25 1-17-1-17-3-21-6-19-8-16-9-19-14-20-20-12-16-10-17-7-15-7-21-4-21-1-10v-30l4-24 6-20 9-20 9-15 8-11 11-13 10-10 11-9 10-7 15-9 20-9 20-6 15-3z" fill="#5CE0E6"/>
<path transform="translate(318,228)" d="m0 0 3 1-12 15-11 17-9 16-10 23-8 26-4 20-2 17v39l3 23 6 25 6 18 8 18 10 19 8 12 9 12 7 8-2 1-21-9-22-11-24-14-12-8-18-13-16-13-11-9-11-11-8-7-12-13-12-14-12-16-11-16 1-4 11-16 11-14 11-13 11-12 18-18 8-7 17-14 18-13 18-12 21-12 23-12z"/>
<path transform="translate(678,227)" d="m0 0 9 3 33 16 18 10 19 12 14 10 13 10 16 13 15 14 19 19 9 11 13 16 14 20-1 5-12 17-11 14-12 14-14 15-7 7-8 7-11 10-17 13-15 11-15 10-26 15-26 13-16 6 2-4 11-14 10-15 14-27 8-21 6-21 4-22 2-28-1-24-4-27-5-20-6-18-9-20-8-15-10-15-9-12z"/>
<path transform="translate(397,599)" d="m0 0h26v149h-26l-1-13h-2l-7 8-9 5-8 2h-13l-13-4-8-6-7-8-5-11-3-13v-27l4-15 6-11 8-8 10-5 7-2h18l11 4 8 7 2 2h2z"/>
<path transform="translate(807,640)" d="m0 0h22l13 4 10 6 9 9 6 12 3 12v24l-3 12-7 13-8 8-8 5-12 4-6 1h-16l-13-3-10-5-10-9-7-12-4-16v-20l4-16 6-11 9-9 14-7z"/>
<path transform="translate(937,640)" d="m0 0h19l11 4 7 6 6 12 2 13v73h-27l-1-72-3-8-5-4-4-1h-10l-10 4-4 5-4 11-1 65h-27v-106h26l1 15 4-5 9-8z"/>
<path transform="translate(659,640)" d="m0 0h22l12 3 11 7 4 5-9 10-5 5-4-1-5-4-8-3h-16l-6 4v9l5 4 28 7 12 6 5 4 5 9 1 4v14l-3 9-9 10-12 6-9 2h-17l-15-3-12-6-7-6-2-3 1-4 13-14 4 2 8 7 10 4h16l6-2 1-3v-8l-5-5-18-5-13-4-10-6-6-7-3-8v-14l4-10 5-6 10-6z"/>
<path transform="translate(469,642)" d="m0 0h28l17 49 9 25 3 1 2-9 17-49 6-17h28l-11 31-16 43-12 32h-32l-5-12-21-57-13-35z"/>
<path transform="translate(160,642)" d="m0 0h28l10 28 16 46 3 1 1-5 20-58 5-12h27l-6 18-19 51-13 35-1 2h-32l-11-29-17-46-11-30z"/>
<path transform="translate(7,642)" d="m0 0h28l10 28 16 46 3 1 1-5 20-58 5-12h27l-6 18-19 51-13 35-1 2h-32l-11-29-17-46-11-30z"/>
<path transform="translate(278,642)" d="m0 0h27v106h-27z"/>
<path transform="translate(125,642)" d="m0 0h27v106h-27z"/>
<path transform="translate(724,642)" d="m0 0h26v106h-26z"/>
<path transform="translate(587,642)" d="m0 0h26v106h-26z"/>
<path transform="translate(814,662)" d="m0 0h8l9 3 7 6 4 10 1 6v16l-3 11-6 9-8 4h-15l-10-5-6-10-2-11v-12l3-14 6-8 7-4z" fill="#FDFDFD"/>
<path transform="translate(368,662)" d="m0 0h8l9 3 7 7 4 11 1 7v10l-3 14-6 8-6 4-3 1h-14l-8-4-5-6-3-8-1-5v-18l2-9 5-8 6-5z" fill="#FDFDFD"/>
<path transform="translate(560,338)" d="m0 0 10 1 9 6 4 8v12l-3 6-5 5-5 3-10 1-10-4-6-7-2-6v-8l3-8 8-7z" fill="#FEFEFE"/>
<path transform="translate(132,598)" d="m0 0h12l7 4 4 8-1 10-5 6-7 3h-7l-7-3-5-6-1-3v-7l3-7 5-4z"/>
<path transform="translate(286,598)" d="m0 0h12l6 4 3 4 1 3v9l-4 6-5 4-4 1h-7l-8-4-4-6-1-8 3-7 5-5z"/>
<path transform="translate(594,598)" d="m0 0h12l6 4 4 5 1 7-3 9-5 4-5 2h-8l-8-4-4-7v-9l3-6 5-4z"/>
<path transform="translate(731,598)" d="m0 0h12l6 4 4 6v10l-4 7-5 3-4 1h-7l-8-4-4-6v-11l3-5 5-4z"/>
</svg>
